# xmcd
#
# Track frame offsets: 
#        150
#        12448
#        26154
#        39839
#        53961
#        64707
#        79065
#        96555
#        111214
#        127097
#
# Disc length: 1950 seconds
#
# Revision: 0
# Processed by: cddbd v1.5.2PL0 Copyright (c) Steve Scherf et al.
# Submitted via: ExactAudioCopyFreeDBPlugin 1.0
#
DISCID=86079c0a
DTITLE=Drobac And Shaw - Drobac And Shaw
DYEAR=2011
DGENRE=Country
TTITLE0=Headin' Back To Phoenix
TTITLE1=Nobody Like You
TTITLE2=A Girl I've Never Found
TTITLE3=Say You Want Me
TTITLE4=Mistake I've Got To Make
TTITLE5=Get A Little Closer
TTITLE6=If You Want Me To
TTITLE7=Great State Of Depression
TTITLE8=Personal Polka
TTITLE9=Come Back To Me
EXTD=
EXTT0=
EXTT1=
EXTT2=
EXTT3=
EXTT4=
EXTT5=
EXTT6=
EXTT7=
EXTT8=
EXTT9=
PLAYORDER=
